<svg viewBox="0 0 1155 1155" xmlns="http://www.w3.org/2000/svg">
  <path d="M577.5 1155L577.5 1155 577.5 1155 923 721.6 577.5 1155z" fill="#E24329"/>
  <path d="M577.5 1155L232 721.6 577.5 1155z" fill="#E24329"/>
  <path d="M232 721.6L55.2 257.2 577.5 1155 232 721.6z" fill="#FC6D26"/>
  <path d="M55.2 257.2L0 420.6 577.5 1155 55.2 257.2z" fill="#FCA326"/>
  <path d="M0 420.6L55.2 257.2 232 721.6 0 420.6z" fill="#E24329"/>
  <path d="M923 721.6L1099.8 257.2 577.5 1155 923 721.6z" fill="#FC6D26"/>
  <path d="M1099.8 257.2L1155 420.6 577.5 1155 1099.8 257.2z" fill="#FCA326"/>
  <path d="M1155 420.6L1099.8 257.2 923 721.6 1155 420.6z" fill="#E24329"/>
</svg>
